<svg width="37" height="36" viewBox="0 0 37 36" fill="none" xmlns="http://www.w3.org/2000/svg">
<path d="M12.75 28.15H21.25C22.05 28.15 22.75 27.85 23.35 27.25C23.95 26.65 24.25 25.95 24.25 25.15V20.8C24.25 19.9 24 19.2 23.5 18.7C23.0333 18.1667 22.4667 17.9 21.8 17.9C22.4667 17.9 23.0333 17.6833 23.5 17.25C24 16.7833 24.25 16.0833 24.25 15.15V10.85C24.25 10.05 23.95 9.35 23.35 8.75C22.75 8.15 22.05 7.85 21.25 7.85H12.75V10.85H21.25V16.4H16.9V19.4H21.25V25.15H12.75V28.15ZM3.5 36C2.7 36 2 35.7 1.4 35.1C0.8 34.5 0.5 33.8 0.5 33V3C0.5 2.2 0.8 1.5 1.4 0.899998C2 0.299997 2.7 -2.86102e-06 3.5 -2.86102e-06H33.5C34.3 -2.86102e-06 35 0.299997 35.6 0.899998C36.2 1.5 36.5 2.2 36.5 3V33C36.5 33.8 36.2 34.5 35.6 35.1C35 35.7 34.3 36 33.5 36H3.5ZM3.5 33H33.5V3H3.5V33ZM3.5 3V33V3Z" fill="#242166"/>
</svg>
